<?xml version="1.0" standalone="no"?>
<!DOCTYPE svg PUBLIC "-//W3C//DTD SVG 20010904//EN"
 "http://www.w3.org/TR/2001/REC-SVG-20010904/DTD/svg10.dtd">
<svg version="1.0" xmlns="http://www.w3.org/2000/svg"
 width="582.000000pt" height="370.000000pt" viewBox="0 0 582.000000 370.000000"
 preserveAspectRatio="xMidYMid meet">

<g transform="translate(0.000000,370.000000) scale(0.100000,-0.100000)"
fill="#000000" stroke="none">
<path d="M2832 1853 l3 -1398 55 0 55 0 3 1398 2 1397 -60 0 -60 0 2 -1397z"/>
<path d="M552 2148 l3 -633 185 0 185 0 3 633 2 632 -190 0 -190 0 2 -632z"/>
<path d="M1545 2738 c-9 -24 -21 -52 -25 -63 -4 -11 -13 -33 -19 -50 -7 -16
-22 -56 -33 -90 -11 -33 -24 -64 -29 -70 -5 -5 -9 -19 -9 -31 0 -13 -4 -25 -9
-29 -5 -3 -13 -20 -17 -37 -3 -18 -10 -39 -14 -48 -4 -8 -16 -35 -25 -60 -9
-25 -21 -53 -26 -62 -5 -10 -9 -23 -9 -29 0 -6 -6 -25 -14 -42 -7 -18 -19 -48
-26 -67 -14 -37 -33 -85 -56 -138 -8 -18 -14 -41 -14 -50 0 -10 -4 -22 -9 -27
-5 -6 -18 -37 -29 -70 -11 -34 -26 -74 -33 -90 -6 -17 -15 -39 -19 -50 -4 -11
-15 -39 -25 -62 -9 -23 -14 -46 -11 -52 4 -6 73 -10 191 -9 l183 1 15 41 c8
23 22 66 32 96 10 30 22 61 28 68 7 9 61 12 230 10 l220 -3 31 -95 c17 -52 34
-100 38 -106 5 -8 70 -12 198 -13 207 -1 202 -3 179 56 -6 15 -15 37 -19 48
-4 11 -13 33 -19 50 -7 16 -22 56 -33 90 -11 33 -24 64 -29 70 -5 5 -9 19 -9
31 0 13 -4 25 -9 29 -5 3 -13 20 -17 37 -3 18 -10 39 -14 48 -7 13 -21 50 -50
125 -4 11 -13 33 -19 50 -7 16 -22 56 -33 90 -11 33 -24 64 -29 70 -5 5 -9 17
-9 26 0 10 -7 30 -15 46 -8 15 -26 62 -41 103 -14 41 -32 89 -40 107 -8 17
-14 36 -14 42 0 6 -4 19 -9 29 -21 42 -41 94 -41 107 0 13 -33 15 -213 15
l-214 0 -18 -42z m245 -326 c0 -9 7 -37 15 -62 8 -25 26 -80 40 -122 14 -42
25 -85 25 -95 0 -11 4 -23 9 -28 12 -14 33 -106 26 -114 -9 -8 -221 -14 -251
-7 -19 5 -24 13 -24 36 0 17 4 38 9 48 6 9 17 44 27 77 9 33 22 78 29 100 27
85 45 148 45 161 0 15 30 35 42 28 5 -3 8 -13 8 -22z"/>
</g>
</svg>
