<?xml version="1.0" standalone="no"?>
<!DOCTYPE svg PUBLIC "-//W3C//DTD SVG 20010904//EN"
 "http://www.w3.org/TR/2001/REC-SVG-20010904/DTD/svg10.dtd">
<svg version="1.0" xmlns="http://www.w3.org/2000/svg"
 width="1024.000000pt" height="254.000000pt" viewBox="0 0 1024.000000 254.000000"
 preserveAspectRatio="xMidYMid meet">

<g transform="translate(0.000000,254.000000) scale(0.100000,-0.100000)"
fill="#000000" stroke="none">
<path d="M0 2230 l0 -310 70 0 70 0 0 240 0 240 4863 0 c4596 -1 4861 -2 4842
-18 -153 -129 -1265 -1115 -1265 -1121 0 -8 60 -62 525 -471 153 -135 418
-368 589 -519 l311 -273 49 53 48 53 -28 24 c-33 28 -430 377 -884 777 -168
149 -328 289 -355 313 l-50 43 26 22 c87 73 1419 1249 1419 1253 0 2 -2302 4
-5115 4 l-5115 0 0 -310z"/>
<path d="M1220 1457 c-71 -24 -100 -60 -100 -125 0 -72 30 -109 114 -139 66
-24 110 -65 101 -95 -4 -13 -14 -29 -23 -35 -22 -17 -85 -16 -129 2 -19 8 -37
15 -40 15 -4 0 -33 -65 -33 -74 0 -15 119 -38 170 -33 104 9 150 52 150 140 0
75 -30 107 -152 162 -32 15 -60 34 -63 45 -17 53 54 85 126 57 l40 -16 15 34
c8 19 14 37 14 39 0 9 -102 36 -129 35 -14 0 -42 -6 -61 -12z"/>
<path d="M68 1454 c-17 -5 -18 -25 -18 -240 l0 -234 45 0 45 0 0 91 0 90 27
-3 c22 -2 34 -17 72 -90 l46 -88 48 0 c26 0 47 3 47 7 0 3 -22 48 -50 99 -48
90 -49 94 -30 107 25 17 50 77 50 117 0 47 -24 94 -61 121 -27 19 -47 23 -118
25 -47 2 -94 0 -103 -2z m145 -85 c30 -16 37 -28 37 -65 0 -39 -25 -63 -70
-66 l-35 -3 -3 73 c-3 72 -3 72 23 72 15 0 36 -5 48 -11z"/>
<path d="M587 1454 c-4 -4 -7 -22 -7 -40 0 -33 0 -33 53 -36 l52 -3 3 -157 3
-158 -56 0 -55 0 0 -40 0 -40 156 0 155 0 -3 38 -3 37 -53 3 -53 3 3 157 3
157 53 3 53 3 -3 37 -3 37 -146 3 c-80 1 -148 -1 -152 -4z"/>
<path d="M1650 1221 l0 -241 50 0 49 0 3 108 3 107 52 -74 c29 -40 58 -89 65
-107 12 -33 14 -34 66 -34 51 0 53 1 47 23 -13 42 -73 142 -114 189 l-41 46
24 29 c34 40 116 170 116 182 0 6 -21 11 -49 11 l-49 0 -35 -62 c-20 -35 -47
-78 -61 -97 l-25 -34 -3 94 -3 94 -47 3 -48 3 0 -240z"/>
<path d="M176 538 c-51 -14 -118 -81 -134 -134 -15 -50 -16 -165 -2 -216 30
-108 162 -166 280 -124 39 14 46 30 31 68 l-10 26 -46 -16 c-90 -29 -156 15
-171 115 -10 69 4 129 38 168 27 31 36 35 80 35 27 0 59 -5 70 -11 24 -13 36
-4 44 37 5 25 2 32 -20 42 -38 17 -116 22 -160 10z"/>
<path d="M686 540 c-81 -25 -121 -109 -121 -250 1 -109 24 -174 77 -211 73
-52 179 -30 225 48 66 113 39 346 -46 396 -36 21 -98 29 -135 17z m100 -105
c21 -32 30 -175 15 -233 -23 -83 -95 -92 -127 -15 -22 51 -16 208 9 246 24 37
79 38 103 2z"/>
<path d="M1786 536 c-61 -23 -89 -47 -118 -106 -23 -45 -28 -66 -28 -130 0
-42 5 -92 11 -111 39 -116 155 -166 281 -123 l46 15 -12 35 c-13 38 -13 38
-71 23 -55 -15 -110 3 -134 42 -25 41 -35 127 -21 180 18 64 58 99 115 99 25
0 56 -5 67 -11 24 -13 36 -4 44 37 5 25 2 32 -20 42 -44 20 -118 23 -160 8z"/>
<path d="M1114 527 c-2 -7 -3 -114 -2 -237 l3 -225 42 -3 42 -3 3 153 3 153
75 -152 75 -153 38 0 37 0 -2 238 -3 237 -40 0 -40 0 -3 -138 -3 -138 -57 113
c-83 162 -88 168 -128 168 -19 0 -37 -6 -40 -13z"/>
<path d="M2197 533 c-4 -3 -7 -21 -7 -39 0 -33 0 -33 53 -36 l52 -3 3 -157 3
-157 -53 -3 -53 -3 0 -35 0 -35 153 -3 152 -3 0 41 0 40 -55 0 -56 0 3 158 3
157 53 3 52 3 0 40 0 39 -148 0 c-82 0 -152 -3 -155 -7z"/>
<path d="M2750 300 l0 -240 145 0 145 0 0 40 0 40 -100 0 -100 0 0 200 0 200
-45 0 -45 0 0 -240z"/>
<path d="M3280 300 l0 -240 150 0 150 0 0 40 0 40 -105 0 -105 0 0 65 0 65 85
0 85 0 0 40 0 40 -86 0 -85 0 3 53 3 52 93 3 92 3 0 39 0 40 -140 0 -140 0 0
-240z"/>
</g>
</svg>
