<svg version="1.1" xmlns="http://www.w3.org/2000/svg" xmlns:xlink="http://www.w3.org/1999/xlink" width="125.000000pt" height="125.000000pt" viewBox="0,0,256,256"><g fill="#9bac9a" fill-rule="nonzero" stroke="none" stroke-width="1" stroke-linecap="butt" stroke-linejoin="miter" stroke-miterlimit="10" stroke-dasharray="" stroke-dashoffset="0" font-family="none" font-weight="none" font-size="none" text-anchor="none" style="mix-blend-mode: normal"><g transform="translate(0.26039,0.00983) scale(2.048,2.048)"><g transform="translate(0,125) scale(0.1,-0.1)"><path d="M763,1128c-12,-13 -53,-71 -92,-130c-73,-110 -95,-130 -169,-163c-24,-10 -65,-42 -90,-71c-44,-48 -59,-57 -207,-117c-88,-36 -161,-71 -163,-78c-1,-8 56,-56 128,-107c130,-93 130,-93 165,-81c32,12 37,11 59,-10c27,-26 80,-124 116,-213c25,-64 38,-70 93,-42c56,29 95,64 178,158c147,166 187,172 319,51c67,-62 96,-80 105,-65c4,6 -18,70 -48,143c-31,72 -83,210 -116,305c-133,378 -166,442 -228,442c-18,0 -38,-9 -50,-22zM849,1084c23,-30 77,-163 160,-400c32,-93 73,-204 90,-247c17,-43 31,-80 31,-84c0,-3 -20,13 -44,35c-57,53 -111,70 -168,53c-35,-10 -67,-37 -168,-141c-69,-71 -140,-136 -158,-145l-33,-16l-15,38c-40,98 -87,185 -117,217l-33,34l32,26c81,64 187,239 284,468c85,201 97,215 139,162zM634,843c-31,-72 -92,-184 -108,-201c-10,-10 -21,-6 -59,23c-26,20 -47,40 -47,45c0,20 74,82 123,104c29,13 65,37 81,55c17,17 31,31 33,31c1,0 -9,-26 -23,-57zM490,588c0,-25 -156,-168 -184,-168c-13,0 -190,127 -194,139c-1,4 59,33 135,63l137,56l53,-40c29,-22 53,-45 53,-50z"></path><path d="M805,1049c-87,-369 -141,-556 -178,-610c-20,-30 -44,-49 -101,-84c-15,-9 -14,-15 10,-65c14,-30 30,-65 35,-78l9,-24l38,30c21,17 71,69 112,116c81,94 141,140 193,150l34,6l-66,284c-36,157 -69,288 -73,291c-4,4 -10,-3 -13,-16z"></path></g></g></g></svg>